<mxfile host="app.diagrams.net" modified="2022-05-23T01:50:01.328Z" agent="5.0 (Windows NT 10.0; Win64; x64) AppleWebKit/537.36 (KHTML, like Gecko) Chrome/101.0.4951.67 Safari/537.36" etag="u21GPSuZsN8ZY3g5r2yc" version="18.1.1" type="github">
  <diagram id="7rq5Wp0ApQBR4YST9yJB" name="Page-1">
    <mxGraphModel dx="1384" dy="1884" grid="1" gridSize="10" guides="1" tooltips="1" connect="1" arrows="1" fold="1" page="1" pageScale="1" pageWidth="850" pageHeight="1100" math="0" shadow="0">
      <root>
        <mxCell id="0" />
        <mxCell id="1" parent="0" />
        <mxCell id="IYNSl4veF29WF7EFnHOx-24" style="rounded=0;orthogonalLoop=1;jettySize=auto;html=1;exitX=0.25;exitY=0;exitDx=0;exitDy=0;fontSize=12;edgeStyle=orthogonalEdgeStyle;curved=1;entryX=0.943;entryY=0.733;entryDx=0;entryDy=0;entryPerimeter=0;" edge="1" parent="1" source="IYNSl4veF29WF7EFnHOx-1" target="IYNSl4veF29WF7EFnHOx-12">
          <mxGeometry relative="1" as="geometry">
            <Array as="points">
              <mxPoint x="870" y="510" />
              <mxPoint x="870" y="475" />
              <mxPoint x="734" y="475" />
            </Array>
          </mxGeometry>
        </mxCell>
        <mxCell id="IYNSl4veF29WF7EFnHOx-25" style="edgeStyle=orthogonalEdgeStyle;curved=1;rounded=0;orthogonalLoop=1;jettySize=auto;html=1;exitX=0.75;exitY=0;exitDx=0;exitDy=0;entryX=0.5;entryY=1;entryDx=0;entryDy=0;fontSize=12;" edge="1" parent="1" source="IYNSl4veF29WF7EFnHOx-1" target="IYNSl4veF29WF7EFnHOx-47">
          <mxGeometry relative="1" as="geometry">
            <mxPoint x="930" y="450" as="targetPoint" />
          </mxGeometry>
        </mxCell>
        <mxCell id="IYNSl4veF29WF7EFnHOx-26" style="edgeStyle=orthogonalEdgeStyle;curved=1;rounded=0;orthogonalLoop=1;jettySize=auto;html=1;exitX=0;exitY=0.25;exitDx=0;exitDy=0;entryX=1;entryY=1;entryDx=0;entryDy=0;fontSize=12;" edge="1" parent="1" source="IYNSl4veF29WF7EFnHOx-1" target="IYNSl4veF29WF7EFnHOx-10">
          <mxGeometry relative="1" as="geometry" />
        </mxCell>
        <mxCell id="IYNSl4veF29WF7EFnHOx-27" style="edgeStyle=orthogonalEdgeStyle;curved=1;rounded=0;orthogonalLoop=1;jettySize=auto;html=1;exitX=0;exitY=0.75;exitDx=0;exitDy=0;entryX=1;entryY=0.5;entryDx=0;entryDy=0;fontSize=12;" edge="1" parent="1" source="IYNSl4veF29WF7EFnHOx-1" target="IYNSl4veF29WF7EFnHOx-11">
          <mxGeometry relative="1" as="geometry" />
        </mxCell>
        <mxCell id="IYNSl4veF29WF7EFnHOx-28" style="edgeStyle=orthogonalEdgeStyle;curved=1;rounded=0;orthogonalLoop=1;jettySize=auto;html=1;exitX=0;exitY=1;exitDx=0;exitDy=0;entryX=1;entryY=0;entryDx=0;entryDy=0;fontSize=12;" edge="1" parent="1" source="IYNSl4veF29WF7EFnHOx-1" target="IYNSl4veF29WF7EFnHOx-13">
          <mxGeometry relative="1" as="geometry" />
        </mxCell>
        <mxCell id="IYNSl4veF29WF7EFnHOx-54" style="edgeStyle=orthogonalEdgeStyle;curved=1;rounded=0;orthogonalLoop=1;jettySize=auto;html=1;exitX=0.25;exitY=0;exitDx=0;exitDy=0;entryX=0.5;entryY=1;entryDx=0;entryDy=0;fontSize=12;" edge="1" parent="1" source="IYNSl4veF29WF7EFnHOx-1" target="IYNSl4veF29WF7EFnHOx-51">
          <mxGeometry relative="1" as="geometry" />
        </mxCell>
        <mxCell id="IYNSl4veF29WF7EFnHOx-1" value="patient" style="rounded=0;whiteSpace=wrap;html=1;" vertex="1" parent="1">
          <mxGeometry x="880" y="510" width="120" height="60" as="geometry" />
        </mxCell>
        <mxCell id="IYNSl4veF29WF7EFnHOx-37" style="edgeStyle=orthogonalEdgeStyle;curved=1;rounded=0;orthogonalLoop=1;jettySize=auto;html=1;exitX=0.75;exitY=0;exitDx=0;exitDy=0;entryX=0.5;entryY=1;entryDx=0;entryDy=0;fontSize=12;" edge="1" parent="1" source="IYNSl4veF29WF7EFnHOx-2" target="IYNSl4veF29WF7EFnHOx-48">
          <mxGeometry relative="1" as="geometry">
            <mxPoint x="1520" y="410" as="targetPoint" />
          </mxGeometry>
        </mxCell>
        <mxCell id="IYNSl4veF29WF7EFnHOx-38" style="edgeStyle=orthogonalEdgeStyle;curved=1;rounded=0;orthogonalLoop=1;jettySize=auto;html=1;exitX=1;exitY=0;exitDx=0;exitDy=0;entryX=0;entryY=0.5;entryDx=0;entryDy=0;fontSize=12;" edge="1" parent="1" source="IYNSl4veF29WF7EFnHOx-2" target="IYNSl4veF29WF7EFnHOx-34">
          <mxGeometry relative="1" as="geometry" />
        </mxCell>
        <mxCell id="IYNSl4veF29WF7EFnHOx-39" style="edgeStyle=orthogonalEdgeStyle;curved=1;rounded=0;orthogonalLoop=1;jettySize=auto;html=1;exitX=1;exitY=0.25;exitDx=0;exitDy=0;fontSize=12;" edge="1" parent="1" source="IYNSl4veF29WF7EFnHOx-2" target="IYNSl4veF29WF7EFnHOx-32">
          <mxGeometry relative="1" as="geometry" />
        </mxCell>
        <mxCell id="IYNSl4veF29WF7EFnHOx-40" style="edgeStyle=orthogonalEdgeStyle;curved=1;rounded=0;orthogonalLoop=1;jettySize=auto;html=1;exitX=1;exitY=0.5;exitDx=0;exitDy=0;entryX=0;entryY=0.5;entryDx=0;entryDy=0;fontSize=12;" edge="1" parent="1" source="IYNSl4veF29WF7EFnHOx-2" target="IYNSl4veF29WF7EFnHOx-33">
          <mxGeometry relative="1" as="geometry" />
        </mxCell>
        <mxCell id="IYNSl4veF29WF7EFnHOx-41" style="edgeStyle=orthogonalEdgeStyle;curved=1;rounded=0;orthogonalLoop=1;jettySize=auto;html=1;exitX=1;exitY=1;exitDx=0;exitDy=0;entryX=0;entryY=0;entryDx=0;entryDy=0;fontSize=12;" edge="1" parent="1" source="IYNSl4veF29WF7EFnHOx-2" target="IYNSl4veF29WF7EFnHOx-35">
          <mxGeometry relative="1" as="geometry" />
        </mxCell>
        <mxCell id="IYNSl4veF29WF7EFnHOx-50" style="edgeStyle=orthogonalEdgeStyle;curved=1;rounded=0;orthogonalLoop=1;jettySize=auto;html=1;exitX=0.75;exitY=0;exitDx=0;exitDy=0;fontSize=12;entryX=0;entryY=1;entryDx=0;entryDy=0;" edge="1" parent="1" source="IYNSl4veF29WF7EFnHOx-2" target="IYNSl4veF29WF7EFnHOx-49">
          <mxGeometry relative="1" as="geometry" />
        </mxCell>
        <mxCell id="IYNSl4veF29WF7EFnHOx-2" value="Doctor" style="rounded=0;whiteSpace=wrap;html=1;" vertex="1" parent="1">
          <mxGeometry x="1440" y="490" width="120" height="60" as="geometry" />
        </mxCell>
        <mxCell id="IYNSl4veF29WF7EFnHOx-3" value="" style="rounded=0;whiteSpace=wrap;html=1;" vertex="1" parent="1">
          <mxGeometry x="2320" y="-1100" width="120" height="60" as="geometry" />
        </mxCell>
        <mxCell id="IYNSl4veF29WF7EFnHOx-104" style="edgeStyle=orthogonalEdgeStyle;curved=1;rounded=0;orthogonalLoop=1;jettySize=auto;html=1;exitX=0;exitY=0.25;exitDx=0;exitDy=0;entryX=0.645;entryY=1.133;entryDx=0;entryDy=0;entryPerimeter=0;fontSize=12;" edge="1" parent="1" source="IYNSl4veF29WF7EFnHOx-5" target="IYNSl4veF29WF7EFnHOx-96">
          <mxGeometry relative="1" as="geometry" />
        </mxCell>
        <mxCell id="IYNSl4veF29WF7EFnHOx-105" style="edgeStyle=orthogonalEdgeStyle;curved=1;rounded=0;orthogonalLoop=1;jettySize=auto;html=1;exitX=0;exitY=0;exitDx=0;exitDy=0;entryX=0;entryY=1;entryDx=0;entryDy=0;fontSize=12;" edge="1" parent="1" source="IYNSl4veF29WF7EFnHOx-5" target="IYNSl4veF29WF7EFnHOx-97">
          <mxGeometry relative="1" as="geometry" />
        </mxCell>
        <mxCell id="IYNSl4veF29WF7EFnHOx-106" style="edgeStyle=orthogonalEdgeStyle;curved=1;rounded=0;orthogonalLoop=1;jettySize=auto;html=1;exitX=0.25;exitY=0;exitDx=0;exitDy=0;entryX=0;entryY=1;entryDx=0;entryDy=0;fontSize=12;" edge="1" parent="1" source="IYNSl4veF29WF7EFnHOx-5" target="IYNSl4veF29WF7EFnHOx-99">
          <mxGeometry relative="1" as="geometry" />
        </mxCell>
        <mxCell id="IYNSl4veF29WF7EFnHOx-107" style="edgeStyle=orthogonalEdgeStyle;curved=1;rounded=0;orthogonalLoop=1;jettySize=auto;html=1;exitX=0.5;exitY=0;exitDx=0;exitDy=0;entryX=0;entryY=1;entryDx=0;entryDy=0;fontSize=12;" edge="1" parent="1" source="IYNSl4veF29WF7EFnHOx-5" target="IYNSl4veF29WF7EFnHOx-98">
          <mxGeometry relative="1" as="geometry" />
        </mxCell>
        <mxCell id="IYNSl4veF29WF7EFnHOx-108" style="edgeStyle=orthogonalEdgeStyle;curved=1;rounded=0;orthogonalLoop=1;jettySize=auto;html=1;exitX=0.75;exitY=0;exitDx=0;exitDy=0;entryX=0;entryY=1;entryDx=0;entryDy=0;fontSize=12;" edge="1" parent="1" source="IYNSl4veF29WF7EFnHOx-5" target="IYNSl4veF29WF7EFnHOx-101">
          <mxGeometry relative="1" as="geometry" />
        </mxCell>
        <mxCell id="IYNSl4veF29WF7EFnHOx-111" style="edgeStyle=orthogonalEdgeStyle;curved=1;rounded=0;orthogonalLoop=1;jettySize=auto;html=1;exitX=0;exitY=0.5;exitDx=0;exitDy=0;entryX=0.5;entryY=1;entryDx=0;entryDy=0;fontSize=12;" edge="1" parent="1" source="IYNSl4veF29WF7EFnHOx-5" target="IYNSl4veF29WF7EFnHOx-110">
          <mxGeometry relative="1" as="geometry" />
        </mxCell>
        <mxCell id="IYNSl4veF29WF7EFnHOx-5" value="Admin" style="rounded=0;whiteSpace=wrap;html=1;fontSize=12;" vertex="1" parent="1">
          <mxGeometry x="1150" y="-140" width="120" height="60" as="geometry" />
        </mxCell>
        <mxCell id="IYNSl4veF29WF7EFnHOx-71" style="edgeStyle=orthogonalEdgeStyle;curved=1;rounded=0;orthogonalLoop=1;jettySize=auto;html=1;exitX=0.75;exitY=0;exitDx=0;exitDy=0;entryX=0;entryY=0.5;entryDx=0;entryDy=0;fontSize=12;" edge="1" parent="1" source="IYNSl4veF29WF7EFnHOx-6" target="IYNSl4veF29WF7EFnHOx-70">
          <mxGeometry relative="1" as="geometry" />
        </mxCell>
        <mxCell id="IYNSl4veF29WF7EFnHOx-75" style="edgeStyle=orthogonalEdgeStyle;curved=1;rounded=0;orthogonalLoop=1;jettySize=auto;html=1;exitX=1;exitY=0.25;exitDx=0;exitDy=0;entryX=0;entryY=0.5;entryDx=0;entryDy=0;fontSize=12;" edge="1" parent="1" source="IYNSl4veF29WF7EFnHOx-6" target="IYNSl4veF29WF7EFnHOx-74">
          <mxGeometry relative="1" as="geometry">
            <Array as="points">
              <mxPoint x="1590" y="910" />
              <mxPoint x="1675" y="910" />
              <mxPoint x="1675" y="920" />
            </Array>
          </mxGeometry>
        </mxCell>
        <mxCell id="IYNSl4veF29WF7EFnHOx-76" style="edgeStyle=orthogonalEdgeStyle;curved=1;rounded=0;orthogonalLoop=1;jettySize=auto;html=1;exitX=1;exitY=0;exitDx=0;exitDy=0;entryX=0;entryY=0.5;entryDx=0;entryDy=0;fontSize=12;" edge="1" parent="1" source="IYNSl4veF29WF7EFnHOx-6" target="IYNSl4veF29WF7EFnHOx-72">
          <mxGeometry relative="1" as="geometry" />
        </mxCell>
        <mxCell id="IYNSl4veF29WF7EFnHOx-6" value="Report&amp;nbsp;" style="rounded=0;whiteSpace=wrap;html=1;fontSize=12;" vertex="1" parent="1">
          <mxGeometry x="1470" y="910" width="120" height="60" as="geometry" />
        </mxCell>
        <mxCell id="IYNSl4veF29WF7EFnHOx-10" value="Name" style="ellipse;whiteSpace=wrap;html=1;align=center;" vertex="1" parent="1">
          <mxGeometry x="670" y="470" width="100" height="40" as="geometry" />
        </mxCell>
        <mxCell id="IYNSl4veF29WF7EFnHOx-11" value="SEX" style="ellipse;whiteSpace=wrap;html=1;align=center;" vertex="1" parent="1">
          <mxGeometry x="710" y="550" width="80" height="30" as="geometry" />
        </mxCell>
        <mxCell id="IYNSl4veF29WF7EFnHOx-12" value="PSSN" style="ellipse;whiteSpace=wrap;html=1;align=center;fontStyle=4;" vertex="1" parent="1">
          <mxGeometry x="640" y="400" width="100" height="40" as="geometry" />
        </mxCell>
        <mxCell id="IYNSl4veF29WF7EFnHOx-13" value="BrithDay" style="ellipse;whiteSpace=wrap;html=1;align=center;" vertex="1" parent="1">
          <mxGeometry x="730" y="620" width="100" height="40" as="geometry" />
        </mxCell>
        <mxCell id="IYNSl4veF29WF7EFnHOx-32" value="Name" style="ellipse;whiteSpace=wrap;html=1;align=center;" vertex="1" parent="1">
          <mxGeometry x="1650" y="460" width="100" height="40" as="geometry" />
        </mxCell>
        <mxCell id="IYNSl4veF29WF7EFnHOx-33" value="SEX" style="ellipse;whiteSpace=wrap;html=1;align=center;" vertex="1" parent="1">
          <mxGeometry x="1660" y="535" width="80" height="30" as="geometry" />
        </mxCell>
        <mxCell id="IYNSl4veF29WF7EFnHOx-34" value="DSSN" style="ellipse;whiteSpace=wrap;html=1;align=center;fontStyle=4;" vertex="1" parent="1">
          <mxGeometry x="1680" y="420" width="100" height="40" as="geometry" />
        </mxCell>
        <mxCell id="IYNSl4veF29WF7EFnHOx-35" value="BrithDay" style="ellipse;whiteSpace=wrap;html=1;align=center;" vertex="1" parent="1">
          <mxGeometry x="1600" y="600" width="100" height="40" as="geometry" />
        </mxCell>
        <mxCell id="IYNSl4veF29WF7EFnHOx-56" style="edgeStyle=orthogonalEdgeStyle;curved=1;rounded=0;orthogonalLoop=1;jettySize=auto;html=1;exitX=0;exitY=0;exitDx=0;exitDy=0;fontSize=12;" edge="1" parent="1" source="IYNSl4veF29WF7EFnHOx-42" target="IYNSl4veF29WF7EFnHOx-55">
          <mxGeometry relative="1" as="geometry" />
        </mxCell>
        <mxCell id="IYNSl4veF29WF7EFnHOx-58" style="edgeStyle=orthogonalEdgeStyle;curved=1;rounded=0;orthogonalLoop=1;jettySize=auto;html=1;exitX=0.5;exitY=0;exitDx=0;exitDy=0;entryX=0.5;entryY=1;entryDx=0;entryDy=0;fontSize=12;" edge="1" parent="1" source="IYNSl4veF29WF7EFnHOx-42" target="IYNSl4veF29WF7EFnHOx-57">
          <mxGeometry relative="1" as="geometry">
            <Array as="points">
              <mxPoint x="1240" y="460" />
              <mxPoint x="1120" y="460" />
            </Array>
          </mxGeometry>
        </mxCell>
        <mxCell id="IYNSl4veF29WF7EFnHOx-42" value="test" style="rhombus;whiteSpace=wrap;html=1;fontSize=12;" vertex="1" parent="1">
          <mxGeometry x="1200" y="500" width="80" height="80" as="geometry" />
        </mxCell>
        <mxCell id="IYNSl4veF29WF7EFnHOx-45" value="" style="edgeStyle=entityRelationEdgeStyle;fontSize=12;html=1;endArrow=ERzeroToMany;endFill=1;rounded=0;curved=1;entryX=1;entryY=0.75;entryDx=0;entryDy=0;" edge="1" parent="1" source="IYNSl4veF29WF7EFnHOx-42" target="IYNSl4veF29WF7EFnHOx-1">
          <mxGeometry width="100" height="100" relative="1" as="geometry">
            <mxPoint x="1230" y="450" as="sourcePoint" />
            <mxPoint x="1330" y="350" as="targetPoint" />
          </mxGeometry>
        </mxCell>
        <mxCell id="IYNSl4veF29WF7EFnHOx-46" value="" style="edgeStyle=entityRelationEdgeStyle;fontSize=12;html=1;endArrow=ERzeroToMany;endFill=1;rounded=0;curved=1;entryX=0;entryY=0.75;entryDx=0;entryDy=0;exitX=1;exitY=0.5;exitDx=0;exitDy=0;" edge="1" parent="1" source="IYNSl4veF29WF7EFnHOx-42" target="IYNSl4veF29WF7EFnHOx-2">
          <mxGeometry width="100" height="100" relative="1" as="geometry">
            <mxPoint x="1450" y="590" as="sourcePoint" />
            <mxPoint x="1250" y="605" as="targetPoint" />
          </mxGeometry>
        </mxCell>
        <mxCell id="IYNSl4veF29WF7EFnHOx-47" value="Phone number" style="ellipse;shape=doubleEllipse;margin=3;whiteSpace=wrap;html=1;align=center;fontSize=12;" vertex="1" parent="1">
          <mxGeometry x="880" y="400" width="100" height="40" as="geometry" />
        </mxCell>
        <mxCell id="IYNSl4veF29WF7EFnHOx-48" value="Phone number" style="ellipse;shape=doubleEllipse;margin=3;whiteSpace=wrap;html=1;align=center;fontSize=12;" vertex="1" parent="1">
          <mxGeometry x="1480" y="360" width="100" height="40" as="geometry" />
        </mxCell>
        <mxCell id="IYNSl4veF29WF7EFnHOx-49" value="&lt;span style=&quot;border-bottom: 1px dotted&quot;&gt;DocId&lt;/span&gt;" style="ellipse;whiteSpace=wrap;html=1;align=center;fontSize=12;" vertex="1" parent="1">
          <mxGeometry x="1630" y="330" width="100" height="40" as="geometry" />
        </mxCell>
        <mxCell id="IYNSl4veF29WF7EFnHOx-51" value="&lt;span style=&quot;border-bottom: 1px dotted&quot;&gt;PId&lt;/span&gt;" style="ellipse;whiteSpace=wrap;html=1;align=center;fontSize=12;" vertex="1" parent="1">
          <mxGeometry x="690" y="340" width="100" height="40" as="geometry" />
        </mxCell>
        <mxCell id="IYNSl4veF29WF7EFnHOx-55" value="time" style="ellipse;whiteSpace=wrap;html=1;align=center;fontSize=12;" vertex="1" parent="1">
          <mxGeometry x="1080" y="480" width="100" height="40" as="geometry" />
        </mxCell>
        <mxCell id="IYNSl4veF29WF7EFnHOx-57" value="date" style="ellipse;whiteSpace=wrap;html=1;align=center;fontSize=12;" vertex="1" parent="1">
          <mxGeometry x="1070" y="410" width="100" height="40" as="geometry" />
        </mxCell>
        <mxCell id="IYNSl4veF29WF7EFnHOx-59" value="write&amp;nbsp;" style="rhombus;whiteSpace=wrap;html=1;fontSize=12;" vertex="1" parent="1">
          <mxGeometry x="1470" y="710" width="80" height="80" as="geometry" />
        </mxCell>
        <mxCell id="IYNSl4veF29WF7EFnHOx-61" value="" style="edgeStyle=entityRelationEdgeStyle;fontSize=12;html=1;endArrow=ERzeroToMany;endFill=1;rounded=0;curved=1;entryX=0.5;entryY=1;entryDx=0;entryDy=0;exitX=0.5;exitY=0;exitDx=0;exitDy=0;" edge="1" parent="1" source="IYNSl4veF29WF7EFnHOx-59" target="IYNSl4veF29WF7EFnHOx-2">
          <mxGeometry width="100" height="100" relative="1" as="geometry">
            <mxPoint x="1230" y="690" as="sourcePoint" />
            <mxPoint x="1330" y="590" as="targetPoint" />
          </mxGeometry>
        </mxCell>
        <mxCell id="IYNSl4veF29WF7EFnHOx-62" value="" style="edgeStyle=entityRelationEdgeStyle;fontSize=12;html=1;endArrow=ERzeroToMany;endFill=1;rounded=0;curved=1;entryX=0.5;entryY=0;entryDx=0;entryDy=0;" edge="1" parent="1" target="IYNSl4veF29WF7EFnHOx-6">
          <mxGeometry width="100" height="100" relative="1" as="geometry">
            <mxPoint x="1510" y="788" as="sourcePoint" />
            <mxPoint x="1330" y="590" as="targetPoint" />
          </mxGeometry>
        </mxCell>
        <mxCell id="IYNSl4veF29WF7EFnHOx-70" value="Date&amp;nbsp;" style="ellipse;whiteSpace=wrap;html=1;align=center;fontSize=12;" vertex="1" parent="1">
          <mxGeometry x="1650" y="770" width="100" height="40" as="geometry" />
        </mxCell>
        <mxCell id="IYNSl4veF29WF7EFnHOx-78" style="edgeStyle=orthogonalEdgeStyle;curved=1;rounded=0;orthogonalLoop=1;jettySize=auto;html=1;exitX=0.5;exitY=0;exitDx=0;exitDy=0;entryX=0;entryY=0.5;entryDx=0;entryDy=0;fontSize=12;" edge="1" parent="1" source="IYNSl4veF29WF7EFnHOx-72" target="IYNSl4veF29WF7EFnHOx-77">
          <mxGeometry relative="1" as="geometry" />
        </mxCell>
        <mxCell id="IYNSl4veF29WF7EFnHOx-80" style="edgeStyle=orthogonalEdgeStyle;curved=1;rounded=0;orthogonalLoop=1;jettySize=auto;html=1;exitX=1;exitY=0;exitDx=0;exitDy=0;entryX=0.5;entryY=1;entryDx=0;entryDy=0;fontSize=12;" edge="1" parent="1" source="IYNSl4veF29WF7EFnHOx-72" target="IYNSl4veF29WF7EFnHOx-79">
          <mxGeometry relative="1" as="geometry" />
        </mxCell>
        <mxCell id="IYNSl4veF29WF7EFnHOx-72" value="content" style="ellipse;whiteSpace=wrap;html=1;align=center;fontSize=12;" vertex="1" parent="1">
          <mxGeometry x="1730" y="850" width="100" height="40" as="geometry" />
        </mxCell>
        <mxCell id="IYNSl4veF29WF7EFnHOx-74" value="&lt;u&gt;Rid&lt;/u&gt;" style="ellipse;whiteSpace=wrap;html=1;align=center;fontSize=12;" vertex="1" parent="1">
          <mxGeometry x="1710" y="930" width="100" height="40" as="geometry" />
        </mxCell>
        <mxCell id="IYNSl4veF29WF7EFnHOx-77" value="result" style="ellipse;whiteSpace=wrap;html=1;align=center;fontSize=12;" vertex="1" parent="1">
          <mxGeometry x="1850" y="730" width="100" height="40" as="geometry" />
        </mxCell>
        <mxCell id="IYNSl4veF29WF7EFnHOx-79" value="medicene" style="ellipse;whiteSpace=wrap;html=1;align=center;fontSize=12;" vertex="1" parent="1">
          <mxGeometry x="1870" y="790" width="100" height="40" as="geometry" />
        </mxCell>
        <mxCell id="IYNSl4veF29WF7EFnHOx-81" value="has" style="shape=rhombus;perimeter=rhombusPerimeter;whiteSpace=wrap;html=1;align=center;fontSize=12;rotation=30;" vertex="1" parent="1">
          <mxGeometry x="1110" y="740" width="120" height="60" as="geometry" />
        </mxCell>
        <mxCell id="IYNSl4veF29WF7EFnHOx-83" value="" style="edgeStyle=entityRelationEdgeStyle;fontSize=12;html=1;endArrow=ERzeroToMany;endFill=1;rounded=0;curved=1;entryX=0.75;entryY=1;entryDx=0;entryDy=0;exitX=0;exitY=0.5;exitDx=0;exitDy=0;" edge="1" parent="1" source="IYNSl4veF29WF7EFnHOx-81" target="IYNSl4veF29WF7EFnHOx-1">
          <mxGeometry width="100" height="100" relative="1" as="geometry">
            <mxPoint x="1030" y="750" as="sourcePoint" />
            <mxPoint x="1130" y="650" as="targetPoint" />
          </mxGeometry>
        </mxCell>
        <mxCell id="IYNSl4veF29WF7EFnHOx-84" value="" style="edgeStyle=entityRelationEdgeStyle;fontSize=12;html=1;endArrow=ERzeroToMany;endFill=1;rounded=0;curved=1;entryX=0;entryY=0.25;entryDx=0;entryDy=0;exitX=1;exitY=0.5;exitDx=0;exitDy=0;" edge="1" parent="1" source="IYNSl4veF29WF7EFnHOx-81" target="IYNSl4veF29WF7EFnHOx-6">
          <mxGeometry width="100" height="100" relative="1" as="geometry">
            <mxPoint x="1250" y="760" as="sourcePoint" />
            <mxPoint x="1350" y="660" as="targetPoint" />
          </mxGeometry>
        </mxCell>
        <mxCell id="IYNSl4veF29WF7EFnHOx-96" value="Phone number" style="ellipse;shape=doubleEllipse;margin=3;whiteSpace=wrap;html=1;align=center;fontSize=12;" vertex="1" parent="1">
          <mxGeometry x="960" y="-300" width="100" height="40" as="geometry" />
        </mxCell>
        <mxCell id="IYNSl4veF29WF7EFnHOx-97" value="&lt;u&gt;Aid&lt;/u&gt;" style="ellipse;whiteSpace=wrap;html=1;align=center;fontSize=12;" vertex="1" parent="1">
          <mxGeometry x="1080" y="-300" width="100" height="40" as="geometry" />
        </mxCell>
        <mxCell id="IYNSl4veF29WF7EFnHOx-98" value="sex" style="ellipse;whiteSpace=wrap;html=1;align=center;fontSize=12;" vertex="1" parent="1">
          <mxGeometry x="1320" y="-300" width="100" height="40" as="geometry" />
        </mxCell>
        <mxCell id="IYNSl4veF29WF7EFnHOx-99" value="Aname" style="ellipse;whiteSpace=wrap;html=1;align=center;fontSize=12;" vertex="1" parent="1">
          <mxGeometry x="1200" y="-300" width="100" height="40" as="geometry" />
        </mxCell>
        <mxCell id="IYNSl4veF29WF7EFnHOx-101" value="BrithDay" style="ellipse;whiteSpace=wrap;html=1;align=center;" vertex="1" parent="1">
          <mxGeometry x="1380" y="-260" width="100" height="40" as="geometry" />
        </mxCell>
        <mxCell id="IYNSl4veF29WF7EFnHOx-110" value="&lt;u&gt;ASSN&lt;/u&gt;" style="ellipse;whiteSpace=wrap;html=1;align=center;" vertex="1" parent="1">
          <mxGeometry x="850" y="-270" width="100" height="40" as="geometry" />
        </mxCell>
        <mxCell id="IYNSl4veF29WF7EFnHOx-115" style="edgeStyle=orthogonalEdgeStyle;curved=1;rounded=0;orthogonalLoop=1;jettySize=auto;html=1;exitX=0;exitY=0.5;exitDx=0;exitDy=0;entryX=1;entryY=1;entryDx=0;entryDy=0;fontSize=12;" edge="1" parent="1" source="IYNSl4veF29WF7EFnHOx-112" target="IYNSl4veF29WF7EFnHOx-114">
          <mxGeometry relative="1" as="geometry" />
        </mxCell>
        <mxCell id="IYNSl4veF29WF7EFnHOx-117" style="edgeStyle=orthogonalEdgeStyle;curved=1;rounded=0;orthogonalLoop=1;jettySize=auto;html=1;exitX=1;exitY=0.5;exitDx=0;exitDy=0;entryX=0;entryY=1;entryDx=0;entryDy=0;fontSize=12;" edge="1" parent="1" source="IYNSl4veF29WF7EFnHOx-112" target="IYNSl4veF29WF7EFnHOx-116">
          <mxGeometry relative="1" as="geometry" />
        </mxCell>
        <mxCell id="IYNSl4veF29WF7EFnHOx-119" style="edgeStyle=orthogonalEdgeStyle;curved=1;rounded=0;orthogonalLoop=1;jettySize=auto;html=1;exitX=0;exitY=0.75;exitDx=0;exitDy=0;entryX=1;entryY=0.5;entryDx=0;entryDy=0;fontSize=12;" edge="1" parent="1" source="IYNSl4veF29WF7EFnHOx-112" target="IYNSl4veF29WF7EFnHOx-118">
          <mxGeometry relative="1" as="geometry" />
        </mxCell>
        <mxCell id="IYNSl4veF29WF7EFnHOx-112" value="Acount&amp;nbsp;" style="whiteSpace=wrap;html=1;align=center;fontSize=12;" vertex="1" parent="1">
          <mxGeometry x="1170" y="130" width="100" height="40" as="geometry" />
        </mxCell>
        <mxCell id="IYNSl4veF29WF7EFnHOx-114" value="Email" style="ellipse;whiteSpace=wrap;html=1;align=center;fontStyle=4;fontSize=12;" vertex="1" parent="1">
          <mxGeometry x="1000" y="100" width="100" height="40" as="geometry" />
        </mxCell>
        <mxCell id="IYNSl4veF29WF7EFnHOx-116" value="password" style="ellipse;whiteSpace=wrap;html=1;align=center;fontSize=12;" vertex="1" parent="1">
          <mxGeometry x="1360" y="120" width="100" height="40" as="geometry" />
        </mxCell>
        <mxCell id="IYNSl4veF29WF7EFnHOx-118" value="type" style="ellipse;whiteSpace=wrap;html=1;align=center;fontSize=12;" vertex="1" parent="1">
          <mxGeometry x="990" y="160" width="100" height="40" as="geometry" />
        </mxCell>
        <mxCell id="IYNSl4veF29WF7EFnHOx-120" value="has&amp;nbsp;" style="shape=rhombus;perimeter=rhombusPerimeter;whiteSpace=wrap;html=1;align=center;fontSize=12;direction=west;" vertex="1" parent="1">
          <mxGeometry x="1160" width="120" height="60" as="geometry" />
        </mxCell>
        <mxCell id="IYNSl4veF29WF7EFnHOx-124" value="" style="edgeStyle=entityRelationEdgeStyle;fontSize=12;html=1;endArrow=ERone;endFill=1;rounded=0;curved=1;exitX=0.5;exitY=1;exitDx=0;exitDy=0;" edge="1" parent="1" source="IYNSl4veF29WF7EFnHOx-120">
          <mxGeometry width="100" height="100" relative="1" as="geometry">
            <mxPoint x="1130" y="20" as="sourcePoint" />
            <mxPoint x="1230" y="-80" as="targetPoint" />
          </mxGeometry>
        </mxCell>
        <mxCell id="IYNSl4veF29WF7EFnHOx-125" value="" style="edgeStyle=entityRelationEdgeStyle;fontSize=12;html=1;endArrow=ERone;endFill=1;rounded=0;curved=1;exitX=0.5;exitY=0;exitDx=0;exitDy=0;entryX=0.5;entryY=0;entryDx=0;entryDy=0;" edge="1" parent="1" source="IYNSl4veF29WF7EFnHOx-120" target="IYNSl4veF29WF7EFnHOx-112">
          <mxGeometry width="100" height="100" relative="1" as="geometry">
            <mxPoint x="1165" y="280" as="sourcePoint" />
            <mxPoint x="1175" y="200" as="targetPoint" />
          </mxGeometry>
        </mxCell>
        <mxCell id="IYNSl4veF29WF7EFnHOx-126" value="has&amp;nbsp;" style="shape=rhombus;perimeter=rhombusPerimeter;whiteSpace=wrap;html=1;align=center;fontSize=12;direction=west;" vertex="1" parent="1">
          <mxGeometry x="1000" y="280" width="120" height="60" as="geometry" />
        </mxCell>
        <mxCell id="IYNSl4veF29WF7EFnHOx-127" value="" style="edgeStyle=entityRelationEdgeStyle;fontSize=12;html=1;endArrow=ERone;endFill=1;rounded=0;curved=1;exitX=0.5;exitY=1;exitDx=0;exitDy=0;" edge="1" parent="1" source="IYNSl4veF29WF7EFnHOx-126">
          <mxGeometry width="100" height="100" relative="1" as="geometry">
            <mxPoint x="1070" y="270" as="sourcePoint" />
            <mxPoint x="1170" y="170" as="targetPoint" />
          </mxGeometry>
        </mxCell>
        <mxCell id="IYNSl4veF29WF7EFnHOx-128" value="" style="edgeStyle=entityRelationEdgeStyle;fontSize=12;html=1;endArrow=ERone;endFill=1;rounded=0;curved=1;entryX=1;entryY=0;entryDx=0;entryDy=0;exitX=0.5;exitY=0;exitDx=0;exitDy=0;" edge="1" parent="1" source="IYNSl4veF29WF7EFnHOx-126" target="IYNSl4veF29WF7EFnHOx-1">
          <mxGeometry width="100" height="100" relative="1" as="geometry">
            <mxPoint x="980" y="450" as="sourcePoint" />
            <mxPoint x="1080" y="350" as="targetPoint" />
          </mxGeometry>
        </mxCell>
        <mxCell id="IYNSl4veF29WF7EFnHOx-129" value="has&amp;nbsp;" style="shape=rhombus;perimeter=rhombusPerimeter;whiteSpace=wrap;html=1;align=center;fontSize=12;direction=west;" vertex="1" parent="1">
          <mxGeometry x="1290" y="320" width="120" height="60" as="geometry" />
        </mxCell>
        <mxCell id="IYNSl4veF29WF7EFnHOx-130" value="" style="edgeStyle=entityRelationEdgeStyle;fontSize=12;html=1;endArrow=ERone;endFill=1;rounded=0;curved=1;exitX=0.5;exitY=1;exitDx=0;exitDy=0;entryX=0.75;entryY=1;entryDx=0;entryDy=0;" edge="1" parent="1" source="IYNSl4veF29WF7EFnHOx-129" target="IYNSl4veF29WF7EFnHOx-112">
          <mxGeometry width="100" height="100" relative="1" as="geometry">
            <mxPoint x="1200" y="290" as="sourcePoint" />
            <mxPoint x="1300" y="190" as="targetPoint" />
          </mxGeometry>
        </mxCell>
        <mxCell id="IYNSl4veF29WF7EFnHOx-131" value="" style="edgeStyle=entityRelationEdgeStyle;fontSize=12;html=1;endArrow=ERone;endFill=1;rounded=0;curved=1;entryX=0.25;entryY=0;entryDx=0;entryDy=0;exitX=0.5;exitY=0;exitDx=0;exitDy=0;" edge="1" parent="1" source="IYNSl4veF29WF7EFnHOx-129" target="IYNSl4veF29WF7EFnHOx-2">
          <mxGeometry width="100" height="100" relative="1" as="geometry">
            <mxPoint x="1330" y="510" as="sourcePoint" />
            <mxPoint x="1430" y="410" as="targetPoint" />
          </mxGeometry>
        </mxCell>
      </root>
    </mxGraphModel>
  </diagram>
</mxfile>
